<svg width="24" height="32" viewBox="0 0 24 32" fill="none" xmlns="http://www.w3.org/2000/svg">
<g clip-path="url(#clip0_17_419)">
<path fill-rule="evenodd" clip-rule="evenodd" d="M13.125 16C13.125 16.6213 12.6213 17.125 12 17.125C11.3787 17.125 10.875 16.6213 10.875 16C10.875 15.3787 11.3787 14.875 12 14.875C12.6213 14.875 13.125 15.3787 13.125 16ZM7.875 14.875C7.25368 14.875 6.75 15.3787 6.75 16C6.75 16.6213 7.25368 17.125 7.875 17.125C8.49632 17.125 9 16.6213 9 16C9 15.3787 8.49632 14.875 7.875 14.875ZM16.125 14.875C15.5037 14.875 15 15.3787 15 16C15 16.6213 15.5037 17.125 16.125 17.125C16.7463 17.125 17.25 16.6213 17.25 16C17.25 15.3787 16.7463 14.875 16.125 14.875ZM21.75 16C21.7507 19.424 19.9553 22.5975 17.02 24.3605C14.0847 26.1234 10.4398 26.2174 7.4175 24.6081L4.22531 25.6722C3.68626 25.852 3.09191 25.7117 2.69011 25.3099C2.28831 24.9081 2.14805 24.3137 2.32781 23.7747L3.39188 20.5825C1.48674 17.0006 1.99874 12.6133 4.67747 9.56638C7.35619 6.51944 11.6418 5.44968 15.4382 6.88032C19.2346 8.31096 21.7483 11.943 21.75 16ZM20.25 16C20.249 12.5315 18.0787 9.43408 14.819 8.24891C11.5593 7.06374 7.90643 8.04399 5.67801 10.7019C3.44959 13.3598 3.12157 17.1276 4.85719 20.1306C4.9647 20.3167 4.98723 20.5399 4.91906 20.7437L3.75 24.25L7.25625 23.0809C7.33262 23.0549 7.41275 23.0416 7.49344 23.0416C7.62516 23.0418 7.7545 23.0767 7.86844 23.1428C10.4211 24.6197 13.568 24.6217 16.1225 23.148C18.6771 21.6743 20.2507 18.9491 20.25 16Z" fill="#9EABBA"/>
</g>
<defs>
<clipPath id="clip0_17_419">
<rect width="24" height="24" fill="white" transform="translate(0 4)"/>
</clipPath>
</defs>
</svg>
