<svg width="20" height="20" viewBox="0 0 20 20" fill="none" xmlns="http://www.w3.org/2000/svg">
<path fill-rule="evenodd" clip-rule="evenodd" d="M11.1539 9.99631C11.1539 10.6336 10.6373 11.1501 10.0001 11.1501C9.36281 11.1501 8.84622 10.6336 8.84622 9.99631C8.84622 9.35906 9.36281 8.84247 10.0001 8.84247C10.6373 8.84247 11.1539 9.35906 11.1539 9.99631ZM5.76932 8.84247C5.13207 8.84247 4.61548 9.35906 4.61548 9.99631C4.61548 10.6336 5.13207 11.1501 5.76932 11.1501C6.40657 11.1501 6.92316 10.6336 6.92316 9.99631C6.92316 9.35906 6.40657 8.84247 5.76932 8.84247ZM14.2308 8.84247C13.5936 8.84247 13.077 9.35906 13.077 9.99631C13.077 10.6336 13.5936 11.1501 14.2308 11.1501C14.8681 11.1501 15.3846 10.6336 15.3846 9.99631C15.3846 9.35906 14.8681 8.84247 14.2308 8.84247ZM20 9.99631C20.0008 13.5081 18.1593 16.7629 15.1488 18.5711C12.1382 20.3792 8.39985 20.4756 5.30009 18.8251L2.02607 19.9164C1.47321 20.1008 0.86362 19.957 0.451518 19.5449C0.0394154 19.1327 -0.104443 18.5232 0.0799323 17.9703L1.17127 14.6963C-0.782701 11.0226 -0.257574 6.52281 2.48982 3.39776C5.23721 0.272714 9.63265 -0.824463 13.5264 0.642849C17.4201 2.11016 19.9983 5.83529 20 9.99631ZM18.4615 9.99631C18.4605 6.43893 16.2346 3.26207 12.8913 2.04652C9.54808 0.830972 5.80155 1.83634 3.51601 4.56237C1.23046 7.2884 0.894043 11.1529 2.67415 14.2328C2.78442 14.4237 2.80752 14.6526 2.73761 14.8617L1.53858 18.4578L5.13471 17.2588C5.21304 17.2321 5.29522 17.2184 5.37798 17.2184C5.51308 17.2186 5.64573 17.2544 5.76259 17.3222C8.38069 18.837 11.6083 18.839 14.2283 17.3276C16.8483 15.8161 18.4622 13.021 18.4615 9.99631Z" fill="white"/>
</svg>
